<svg xmlns="http://www.w3.org/2000/svg" width="74.999" height="75.003" viewBox="0 0 74.999 75.003">
  <path id="Icon_awesome-sun" data-name="Icon awesome-sun" d="M37.5,23.438A14.063,14.063,0,1,0,51.564,37.5,14.085,14.085,0,0,0,37.5,23.438ZM73.6,35.231,59.724,28.3l4.907-14.708a2.533,2.533,0,0,0-3.208-3.208L46.716,15.294,39.772,1.406a2.536,2.536,0,0,0-4.541,0L28.3,15.279,13.58,10.371a2.533,2.533,0,0,0-3.208,3.208l4.907,14.708L1.406,35.231a2.536,2.536,0,0,0,0,4.541L15.279,46.7,10.371,61.423a2.533,2.533,0,0,0,3.208,3.208l14.708-4.907L35.216,73.6a2.536,2.536,0,0,0,4.541,0l6.929-13.873,14.708,4.907A2.533,2.533,0,0,0,64.6,61.423L59.695,46.716l13.873-6.929a2.539,2.539,0,0,0,.029-4.556ZM50.759,50.759a18.749,18.749,0,1,1,0-26.515A18.77,18.77,0,0,1,50.759,50.759Z" fill="#04353c"/>
</svg>
